<svg width="204" height="151" viewBox="0 0 204 151" fill="none" xmlns="http://www.w3.org/2000/svg">
<path d="M56.279 -7.18554e-06C68.2682 -6.13741e-06 78.5135 7.84747 81.5653 19.1827L101.402 92.8617L121.457 19.1827C124.508 7.84748 134.754 -3.25065e-07 146.525 7.04007e-07C158.078 1.71402e-06 168.324 7.62948 171.593 18.9647L202.547 127.085C205.817 138.639 197.098 150.192 185.108 150.192C177.043 150.192 169.849 144.742 167.67 136.895L144.999 55.5863L123.854 133.189C121.021 143.216 112.083 150.192 101.62 150.192C91.1567 150.192 82.0013 143.216 79.3855 133.189L58.2409 55.5862L35.7884 136.895C33.6085 144.742 26.415 150.192 18.3496 150.192L18.1316 150.192C6.14239 150.192 -2.57703 138.639 0.692755 127.085L31.6467 18.7467C34.4805 7.62947 44.7258 -8.19556e-06 56.279 -7.18554e-06Z" fill="#03D69D"/>
</svg>
